<?xml version="1.0" standalone="no"?>
<!DOCTYPE svg PUBLIC "-//W3C//DTD SVG 20010904//EN"
 "http://www.w3.org/TR/2001/REC-SVG-20010904/DTD/svg10.dtd">
<svg version="1.0" xmlns="http://www.w3.org/2000/svg"
 width="235.000000pt" height="235.000000pt" viewBox="0 0 235.000000 235.000000"
 preserveAspectRatio="xMidYMid meet">
<metadata>
Created by potrace 1.11, written by Peter Selinger 2001-2013
</metadata>
<g transform="translate(0.000000,235.000000) scale(0.100000,-0.100000)"
fill="#000000" stroke="none">
<path d="M510 1747 c-250 -28 -371 -151 -358 -364 8 -131 53 -203 158 -252 52
-24 68 -26 252 -31 179 -5 199 -7 225 -26 40 -30 54 -62 50 -115 -5 -60 -35
-101 -94 -130 -81 -39 -316 -32 -478 16 -29 8 -55 15 -58 15 -3 0 -5 -41 -4
-91 1 -107 -7 -100 157 -128 101 -17 293 -21 379 -7 105 17 203 71 249 138 92
134 71 357 -42 443 -69 52 -135 67 -325 70 -201 4 -226 11 -251 68 -32 70 -8
141 60 181 93 55 346 52 508 -4 l52 -18 0 93 0 93 -32 11 c-133 41 -295 55
-448 38z"/>
<path d="M1582 1736 c-5 -6 -26 -51 -46 -101 -21 -49 -44 -103 -51 -120 -15
-34 -27 -62 -166 -390 -56 -132 -122 -287 -146 -345 -25 -58 -49 -115 -54
-127 -8 -23 -8 -23 97 -23 l105 0 18 43 c10 23 42 101 71 172 28 72 56 139 60
150 25 59 75 180 141 343 40 100 76 182 80 182 4 0 14 -19 24 -42 9 -24 48
-113 86 -199 38 -86 69 -158 69 -161 0 -2 -51 -4 -114 -3 l-115 1 -32 -83
c-17 -45 -31 -86 -30 -90 0 -4 76 -8 168 -9 93 -1 172 -2 176 -3 4 0 15 -17
23 -37 8 -20 40 -88 69 -150 l54 -114 111 0 110 0 -13 33 c-27 62 -137 316
-292 672 -87 198 -162 372 -168 386 -10 26 -11 26 -119 26 -67 0 -111 -4 -116
-11z"/>
</g>
</svg>
